<?xml version="1.0" standalone="no"?>
<!DOCTYPE svg PUBLIC "-//W3C//DTD SVG 20010904//EN"
 "http://www.w3.org/TR/2001/REC-SVG-20010904/DTD/svg10.dtd">
<svg version="1.0" xmlns="http://www.w3.org/2000/svg"
 width="700.000000pt" height="700.000000pt" viewBox="0 0 700.000000 700.000000"
 preserveAspectRatio="xMidYMid meet">
<metadata>
Created by potrace 1.11, written by Peter Selinger 2001-2013
</metadata>
<g transform="translate(0.000000,700.000000) scale(0.100000,-0.100000)"
fill="#000000" stroke="none">
<path d="M3418 6046 c-89 -24 -142 -82 -173 -190 -35 -119 -1 -233 114 -386
117 -157 119 -186 13 -376 -81 -147 -100 -196 -108 -274 -5 -47 -3 -59 16 -82
43 -56 130 -19 130 55 0 56 26 125 79 212 87 141 105 189 105 275 0 93 -19
137 -114 270 -82 114 -100 153 -100 215 0 98 41 145 127 145 70 0 98 25 89 79
-10 68 -69 86 -178 57z"/>
<path d="M2862 6039 c-71 -14 -129 -49 -197 -120 -86 -89 -126 -172 -126 -263
0 -81 19 -128 99 -239 89 -123 97 -140 96 -227 0 -91 -18 -134 -98 -240 -62
-83 -69 -114 -33 -148 39 -37 80 -29 124 23 109 130 158 256 151 393 -5 103
-28 160 -108 267 -70 95 -83 122 -84 176 0 56 35 119 95 173 50 46 95 66 148
66 31 0 44 6 60 26 21 27 27 69 13 92 -8 12 -67 33 -87 31 -5 -1 -29 -5 -53
-10z"/>
<path d="M3941 5936 c-20 -21 -25 -39 -29 -101 -6 -93 13 -149 100 -302 33
-59 66 -125 74 -146 34 -96 7 -174 -112 -325 -43 -53 -93 -130 -112 -171 -33
-68 -34 -76 -21 -99 8 -14 26 -29 41 -34 45 -15 78 8 118 85 19 37 63 101 97
141 119 142 160 237 150 353 -5 67 -37 142 -121 283 -25 41 -50 96 -57 122
-12 45 -12 49 10 72 17 18 22 33 19 61 -4 46 -36 74 -94 82 -33 4 -43 1 -63
-21z"/>
<path d="M6058 5356 c-155 -55 -291 -172 -413 -355 -54 -81 -244 -438 -266
-499 -6 -17 -173 -17 -334 0 -82 9 -188 20 -235 25 -47 4 -515 8 -1040 8 -525
0 -1115 4 -1310 9 -381 10 -518 3 -739 -35 -351 -60 -749 -197 -1090 -375
-229 -119 -344 -212 -397 -321 -25 -50 -27 -64 -26 -166 3 -150 17 -191 98
-276 54 -58 68 -80 94 -155 67 -190 184 -424 413 -826 243 -427 450 -688 687
-866 104 -78 339 -198 476 -242 l101 -33 12 -49 c15 -59 73 -150 127 -202 174
-165 546 -249 1042 -235 114 3 235 12 287 21 292 53 603 163 701 249 22 19 55
63 72 96 32 59 33 60 90 71 98 21 288 87 395 139 553 267 983 837 1217 1615
56 188 108 412 117 500 5 59 4 64 -21 83 l-26 21 35 58 c36 60 41 79 26 103
-6 9 0 30 15 61 31 62 32 147 3 225 -28 74 -119 171 -218 232 -42 26 -77 48
-79 49 -9 6 205 334 327 499 188 256 222 330 200 436 -29 135 -175 193 -341
135z m184 -143 c46 -41 22 -90 -171 -352 -142 -192 -181 -252 -351 -531 -180
-296 -289 -463 -382 -585 -116 -154 -116 -153 -94 -206 6 -14 -8 -18 -100 -28
-58 -7 -109 -10 -111 -7 -8 8 131 284 288 571 78 143 197 373 265 510 142 290
200 381 304 486 126 126 294 194 352 142z m-3582 -818 c221 -12 510 -15 1150
-14 814 1 1060 -5 1285 -31 44 -5 104 -9 134 -9 29 0 55 -2 58 -5 4 -3 -123
-244 -204 -384 -23 -41 -26 -42 -42 -28 -52 47 -289 64 -556 41 -141 -12 -387
-19 -960 -25 -885 -10 -1041 -17 -1440 -66 -524 -65 -712 -103 -907 -187 -147
-62 -182 -91 -176 -146 l3 -40 -45 5 c-25 3 -152 15 -283 28 -220 22 -240 26
-264 47 -41 39 -47 57 -33 100 10 30 11 45 2 64 -11 24 -8 29 33 70 96 97 288
204 575 323 373 154 728 238 1120 265 113 8 278 6 550 -8z m3155 -214 l-15
-30 58 -32 c76 -44 167 -135 177 -178 12 -58 -2 -97 -61 -160 -59 -64 -158
-122 -274 -160 -71 -23 -274 -71 -302 -71 -13 0 5 31 66 113 87 116 214 309
305 460 51 84 77 117 46 58z m-960 -361 c39 -6 87 -15 107 -21 l37 -10 -52
-107 c-29 -59 -60 -126 -69 -148 -16 -40 -20 -42 -65 -48 -26 -3 -142 -8 -258
-11 -115 -3 -421 -13 -680 -22 -308 -12 -706 -18 -1155 -18 -674 0 -870 6
-1359 41 -112 7 -208 14 -214 14 -5 0 -4 6 2 14 16 19 162 80 253 105 129 36
576 105 873 135 310 32 461 38 1245 47 507 6 859 14 950 23 184 17 297 18 385
6z m910 -340 c-52 -35 -227 -98 -371 -134 -350 -88 -787 -179 -1009 -210 -285
-41 -676 -54 -1085 -37 -265 11 -511 19 -1265 41 -662 20 -1021 63 -1292 154
-104 35 -238 94 -230 102 2 3 96 -5 208 -16 757 -75 1476 -106 2224 -97 482 6
1521 37 1885 57 385 21 695 69 890 138 73 26 81 26 45 2z m218 -62 c-20 -110
-101 -412 -142 -537 -242 -724 -657 -1228 -1190 -1446 -199 -81 -411 -128
-721 -157 -214 -21 -1033 -17 -1228 5 -477 54 -811 158 -1067 330 -122 83
-329 291 -432 435 -178 247 -597 996 -628 1123 l-6 25 128 -42 c323 -107 662
-147 1403 -164 245 -6 632 -17 860 -26 822 -32 1257 -19 1625 51 86 16 588
127 795 175 240 56 411 124 540 214 36 25 66 46 67 46 1 0 0 -15 -4 -32z
m-3548 -2247 c344 -57 714 -73 1230 -51 127 5 285 15 353 21 68 6 126 8 129 6
12 -13 -114 -71 -252 -117 -337 -110 -432 -124 -799 -117 -347 7 -481 30 -643
108 -80 38 -166 109 -193 158 -12 23 -11 24 21 18 19 -3 88 -15 154 -26z"/>
</g>
</svg>
